<?xml version="1.0" encoding="UTF-8" standalone="no"?>
<!DOCTYPE svg PUBLIC "-//W3C//DTD SVG 1.1//EN" "http://www.w3.org/Graphics/SVG/1.1/DTD/svg11.dtd">
<!-- Generated by graphviz version 2.40.1 (20161225.0304)
 -->
<!-- Title: G Pages: 1 -->
<svg width="682pt" height="220pt" viewBox="0.00 0.00 682.00 220.00" xmlns="http://www.w3.org/2000/svg" xmlns:xlink="http://www.w3.org/1999/xlink">
<g id="graph0" class="graph" transform="scale(1 1) rotate(0) translate(4 216)">
<title>G</title>
<polygon fill="#ffffff" stroke="transparent" points="-4,4 -4,-216 678,-216 678,4 -4,4"/>
<g id="clust1" class="cluster">
<title>cluster_0</title>
<polygon fill="none" stroke="#000000" points="8,-8 8,-204 666,-204 666,-8 8,-8"/>
</g>
<!-- Window Model -->
<g id="node1" class="node">
<title>Window Model</title>
<ellipse fill="#d3d3d3" stroke="#000000" cx="311" cy="-178" rx="71.8356" ry="18"/>
<text text-anchor="middle" x="311" y="-173.8" font-family="Times,serif" font-size="14.00" fill="#000000">Window Model</text>
</g>
<!-- Incremental -->
<g id="node2" class="node">
<title>Incremental</title>
<ellipse fill="#d3d3d3" stroke="#000000" cx="215" cy="-106" rx="57.2992" ry="18"/>
<text text-anchor="middle" x="215" y="-101.8" font-family="Times,serif" font-size="14.00" fill="#000000">Incremental</text>
</g>
<!-- Window Model&#45;&gt;Incremental -->
<g id="edge1" class="edge">
<title>Window Model-&gt;Incremental</title>
<path fill="none" stroke="#000000" d="M287.7611,-160.5708C275.0779,-151.0584 259.2185,-139.1639 245.5462,-128.9097"/>
<polygon fill="#000000" stroke="#000000" points="247.4639,-125.9729 237.3639,-122.7729 243.2639,-131.573 247.4639,-125.9729"/>
</g>
<!-- Sliding -->
<g id="node3" class="node">
<title>Sliding</title>
<ellipse fill="#d3d3d3" stroke="#000000" cx="423" cy="-106" rx="38.8825" ry="18"/>
<text text-anchor="middle" x="423" y="-101.8" font-family="Times,serif" font-size="14.00" fill="#000000">Sliding</text>
</g>
<!-- Window Model&#45;&gt;Sliding -->
<g id="edge2" class="edge">
<title>Window Model-&gt;Sliding</title>
<path fill="none" stroke="#000000" d="M337.259,-161.1192C353.4462,-150.7131 374.304,-137.3046 391.3942,-126.318"/>
<polygon fill="#000000" stroke="#000000" points="393.424,-129.174 399.9431,-120.8223 389.6386,-123.2858 393.424,-129.174"/>
</g>
<!-- Landmark -->
<g id="node4" class="node">
<title>Landmark</title>
<ellipse fill="#d3d3d3" stroke="#000000" cx="67" cy="-34" rx="50.9444" ry="18"/>
<text text-anchor="middle" x="67" y="-29.8" font-family="Times,serif" font-size="14.00" fill="#000000">Landmark</text>
</g>
<!-- Incremental&#45;&gt;Landmark -->
<g id="edge3" class="edge">
<title>Incremental-&gt;Landmark</title>
<path fill="none" stroke="#000000" d="M183.613,-90.7307C161.0657,-79.7617 130.5117,-64.8976 106.3352,-53.136"/>
<polygon fill="#000000" stroke="#000000" points="107.6017,-49.86 97.0782,-48.6326 104.5394,-56.1547 107.6017,-49.86"/>
</g>
<!-- Decey -->
<g id="node5" class="node">
<title>Decey</title>
<ellipse fill="#d3d3d3" stroke="#000000" cx="171" cy="-34" rx="35.8941" ry="18"/>
<text text-anchor="middle" x="171" y="-29.8" font-family="Times,serif" font-size="14.00" fill="#000000">Decey</text>
</g>
<!-- Incremental&#45;&gt;Decey -->
<g id="edge4" class="edge">
<title>Incremental-&gt;Decey</title>
<path fill="none" stroke="#000000" d="M204.1236,-88.2022C198.9166,-79.6817 192.5814,-69.315 186.8513,-59.9385"/>
<polygon fill="#000000" stroke="#000000" points="189.8005,-58.0523 181.5995,-51.3446 183.8275,-61.7025 189.8005,-58.0523"/>
</g>
<!-- Tilted -->
<g id="node6" class="node">
<title>Tilted</title>
<ellipse fill="#d3d3d3" stroke="#000000" cx="259" cy="-34" rx="34.2045" ry="18"/>
<text text-anchor="middle" x="259" y="-29.8" font-family="Times,serif" font-size="14.00" fill="#000000">Tilted</text>
</g>
<!-- Incremental&#45;&gt;Tilted -->
<g id="edge5" class="edge">
<title>Incremental-&gt;Tilted</title>
<path fill="none" stroke="#000000" d="M225.8764,-88.2022C231.0834,-79.6817 237.4186,-69.315 243.1487,-59.9385"/>
<polygon fill="#000000" stroke="#000000" points="246.1725,-61.7025 248.4005,-51.3446 240.1995,-58.0523 246.1725,-61.7025"/>
</g>
<!-- Fsw/Trans -->
<g id="node7" class="node">
<title>Fsw/Trans</title>
<ellipse fill="#d3d3d3" stroke="#000000" cx="363" cy="-34" rx="51.6016" ry="18"/>
<text text-anchor="middle" x="363" y="-29.8" font-family="Times,serif" font-size="14.00" fill="#000000">Fsw/Trans</text>
</g>
<!-- Sliding&#45;&gt;Fsw/Trans -->
<g id="edge6" class="edge">
<title>Sliding-&gt;Fsw/Trans</title>
<path fill="none" stroke="#000000" d="M408.7808,-88.937C401.4169,-80.1003 392.2795,-69.1354 384.1093,-59.3311"/>
<polygon fill="#000000" stroke="#000000" points="386.6246,-56.8823 377.5339,-51.4407 381.247,-61.3636 386.6246,-56.8823"/>
</g>
<!-- Fsw/Time -->
<g id="node8" class="node">
<title>Fsw/Time</title>
<ellipse fill="#d3d3d3" stroke="#000000" cx="483" cy="-34" rx="50.3955" ry="18"/>
<text text-anchor="middle" x="483" y="-29.8" font-family="Times,serif" font-size="14.00" fill="#000000">Fsw/Time</text>
</g>
<!-- Sliding&#45;&gt;Fsw/Time -->
<g id="edge7" class="edge">
<title>Sliding-&gt;Fsw/Time</title>
<path fill="none" stroke="#000000" d="M437.2192,-88.937C444.5831,-80.1003 453.7205,-69.1354 461.8907,-59.3311"/>
<polygon fill="#000000" stroke="#000000" points="464.753,-61.3636 468.4661,-51.4407 459.3754,-56.8823 464.753,-61.3636"/>
</g>
<!-- Vsw/Trans -->
<g id="node9" class="node">
<title>Vsw/Trans</title>
<ellipse fill="#d3d3d3" stroke="#000000" cx="605" cy="-34" rx="53.3071" ry="18"/>
<text text-anchor="middle" x="605" y="-29.8" font-family="Times,serif" font-size="14.00" fill="#000000">Vsw/Trans</text>
</g>
<!-- Sliding&#45;&gt;Vsw/Trans -->
<g id="edge8" class="edge">
<title>Sliding-&gt;Vsw/Trans</title>
<path fill="none" stroke="#000000" d="M452.6465,-94.2717C481.8914,-82.7023 526.9605,-64.8728 560.5028,-51.6033"/>
<polygon fill="#000000" stroke="#000000" points="562.0614,-54.7507 570.0726,-47.8174 559.4863,-48.2415 562.0614,-54.7507"/>
</g>
</g>
</svg>