<?xml version="1.0" encoding="UTF-8" standalone="no"?>
<!DOCTYPE svg PUBLIC "-//W3C//DTD SVG 1.1//EN" "http://www.w3.org/Graphics/SVG/1.1/DTD/svg11.dtd">
<!-- Generated by graphviz version 2.40.1 (20161225.0304)
 -->
<!-- Title: G Pages: 1 -->
<svg width="546pt" height="220pt" viewBox="0.00 0.00 546.00 220.00" xmlns="http://www.w3.org/2000/svg" xmlns:xlink="http://www.w3.org/1999/xlink">
<g id="graph0" class="graph" transform="scale(1 1) rotate(0) translate(4 216)">
<title>G</title>
<polygon fill="#ffffff" stroke="transparent" points="-4,4 -4,-216 542,-216 542,4 -4,4"/>
<g id="clust1" class="cluster">
<title>cluster_2</title>
<polygon fill="none" stroke="#000000" points="8,-8 8,-204 530,-204 530,-8 8,-8"/>
</g>
<!-- Mining framework -->
<g id="node1" class="node">
<title>Mining framework</title>
<ellipse fill="#d3d3d3" stroke="#000000" cx="285" cy="-178" rx="84.4923" ry="18"/>
<text text-anchor="middle" x="285" y="-173.8" font-family="Times,serif" font-size="14.00" fill="#000000">Mining framework</text>
</g>
<!-- Support -->
<g id="node2" class="node">
<title>Support</title>
<ellipse fill="#d3d3d3" stroke="#000000" cx="164" cy="-106" rx="41.7346" ry="18"/>
<text text-anchor="middle" x="164" y="-101.8" font-family="Times,serif" font-size="14.00" fill="#000000">Support</text>
</g>
<!-- Mining framework&#45;&gt;Support -->
<g id="edge1" class="edge">
<title>Mining framework-&gt;Support</title>
<path fill="none" stroke="#000000" d="M256.3247,-160.937C238.6677,-150.4304 215.9549,-136.9153 197.4758,-125.9195"/>
<polygon fill="#000000" stroke="#000000" points="199.1685,-122.8539 188.785,-120.7481 195.5889,-128.8695 199.1685,-122.8539"/>
</g>
<!-- Utility -->
<g id="node3" class="node">
<title>Utility</title>
<ellipse fill="#d3d3d3" stroke="#000000" cx="285" cy="-106" rx="36.011" ry="18"/>
<text text-anchor="middle" x="285" y="-101.8" font-family="Times,serif" font-size="14.00" fill="#000000">Utility</text>
</g>
<!-- Mining framework&#45;&gt;Utility -->
<g id="edge2" class="edge">
<title>Mining framework-&gt;Utility</title>
<path fill="none" stroke="#000000" d="M285,-159.8314C285,-152.131 285,-142.9743 285,-134.4166"/>
<polygon fill="#000000" stroke="#000000" points="288.5001,-134.4132 285,-124.4133 281.5001,-134.4133 288.5001,-134.4132"/>
</g>
<!-- Uncertain -->
<g id="node4" class="node">
<title>Uncertain</title>
<ellipse fill="#d3d3d3" stroke="#000000" cx="423" cy="-106" rx="49.2144" ry="18"/>
<text text-anchor="middle" x="423" y="-101.8" font-family="Times,serif" font-size="14.00" fill="#000000">Uncertain</text>
</g>
<!-- Mining framework&#45;&gt;Uncertain -->
<g id="edge3" class="edge">
<title>Mining framework-&gt;Uncertain</title>
<path fill="none" stroke="#000000" d="M317.0068,-161.3008C337.3982,-150.6618 363.9095,-136.8299 385.3164,-125.661"/>
<polygon fill="#000000" stroke="#000000" points="387.2013,-128.6254 394.4482,-120.8966 383.9633,-122.4193 387.2013,-128.6254"/>
</g>
<!-- FI -->
<g id="node5" class="node">
<title>FI</title>
<ellipse fill="#d3d3d3" stroke="#000000" cx="43" cy="-34" rx="27" ry="18"/>
<text text-anchor="middle" x="43" y="-29.8" font-family="Times,serif" font-size="14.00" fill="#000000">FI</text>
</g>
<!-- Support&#45;&gt;FI -->
<g id="edge4" class="edge">
<title>Support-&gt;FI</title>
<path fill="none" stroke="#000000" d="M139.5138,-91.4297C120.0239,-79.8324 92.6941,-63.57 72.09,-51.3097"/>
<polygon fill="#000000" stroke="#000000" points="73.8154,-48.2637 63.4319,-46.1578 70.2358,-54.2793 73.8154,-48.2637"/>
</g>
<!-- CI -->
<g id="node6" class="node">
<title>CI</title>
<ellipse fill="#d3d3d3" stroke="#000000" cx="115" cy="-34" rx="27" ry="18"/>
<text text-anchor="middle" x="115" y="-29.8" font-family="Times,serif" font-size="14.00" fill="#000000">CI</text>
</g>
<!-- Support&#45;&gt;CI -->
<g id="edge5" class="edge">
<title>Support-&gt;CI</title>
<path fill="none" stroke="#000000" d="M152.1385,-88.5708C146.1533,-79.7763 138.7825,-68.9457 132.1892,-59.2577"/>
<polygon fill="#000000" stroke="#000000" points="134.9347,-57.0709 126.4149,-50.7729 129.1477,-61.0093 134.9347,-57.0709"/>
</g>
<!-- MFI -->
<g id="node7" class="node">
<title>MFI</title>
<ellipse fill="#d3d3d3" stroke="#000000" cx="188" cy="-34" rx="28.4088" ry="18"/>
<text text-anchor="middle" x="188" y="-29.8" font-family="Times,serif" font-size="14.00" fill="#000000">MFI</text>
</g>
<!-- Support&#45;&gt;MFI -->
<g id="edge6" class="edge">
<title>Support-&gt;MFI</title>
<path fill="none" stroke="#000000" d="M170.0562,-87.8314C172.7198,-79.8406 175.906,-70.2819 178.8495,-61.4514"/>
<polygon fill="#000000" stroke="#000000" points="182.1869,-62.5071 182.0289,-51.9134 175.5461,-60.2934 182.1869,-62.5071"/>
</g>
<!-- HUI -->
<g id="node8" class="node">
<title>HUI</title>
<ellipse fill="#d3d3d3" stroke="#000000" cx="262" cy="-34" rx="28.3893" ry="18"/>
<text text-anchor="middle" x="262" y="-29.8" font-family="Times,serif" font-size="14.00" fill="#000000">HUI</text>
</g>
<!-- Utility&#45;&gt;HUI -->
<g id="edge7" class="edge">
<title>Utility-&gt;HUI</title>
<path fill="none" stroke="#000000" d="M279.3146,-88.2022C276.7437,-80.1541 273.6466,-70.4588 270.7868,-61.5067"/>
<polygon fill="#000000" stroke="#000000" points="274.0768,-60.3033 267.6997,-51.8425 267.4087,-62.4334 274.0768,-60.3033"/>
</g>
<!-- HAUI -->
<g id="node9" class="node">
<title>HAUI</title>
<ellipse fill="#d3d3d3" stroke="#000000" cx="343" cy="-34" rx="35.3315" ry="18"/>
<text text-anchor="middle" x="343" y="-29.8" font-family="Times,serif" font-size="14.00" fill="#000000">HAUI</text>
</g>
<!-- Utility&#45;&gt;HAUI -->
<g id="edge8" class="edge">
<title>Utility-&gt;HAUI</title>
<path fill="none" stroke="#000000" d="M298.7452,-88.937C305.9684,-79.9703 314.9567,-68.8124 322.9422,-58.8993"/>
<polygon fill="#000000" stroke="#000000" points="325.8058,-60.9237 329.3535,-50.9405 320.3545,-56.5324 325.8058,-60.9237"/>
</g>
<!-- EFI -->
<g id="node10" class="node">
<title>EFI</title>
<ellipse fill="#d3d3d3" stroke="#000000" cx="423" cy="-34" rx="27" ry="18"/>
<text text-anchor="middle" x="423" y="-29.8" font-family="Times,serif" font-size="14.00" fill="#000000">EFI</text>
</g>
<!-- Uncertain&#45;&gt;EFI -->
<g id="edge9" class="edge">
<title>Uncertain-&gt;EFI</title>
<path fill="none" stroke="#000000" d="M423,-87.8314C423,-80.131 423,-70.9743 423,-62.4166"/>
<polygon fill="#000000" stroke="#000000" points="426.5001,-62.4132 423,-52.4133 419.5001,-62.4133 426.5001,-62.4132"/>
</g>
<!-- PFI -->
<g id="node11" class="node">
<title>PFI</title>
<ellipse fill="#d3d3d3" stroke="#000000" cx="495" cy="-34" rx="27" ry="18"/>
<text text-anchor="middle" x="495" y="-29.8" font-family="Times,serif" font-size="14.00" fill="#000000">PFI</text>
</g>
<!-- Uncertain&#45;&gt;PFI -->
<g id="edge10" class="edge">
<title>Uncertain-&gt;PFI</title>
<path fill="none" stroke="#000000" d="M440.063,-88.937C449.8341,-79.1659 462.2072,-66.7928 472.7361,-56.2639"/>
<polygon fill="#000000" stroke="#000000" points="475.417,-58.5327 480.0132,-48.9868 470.4673,-53.583 475.417,-58.5327"/>
</g>
</g>
</svg>