<?xml version="1.0" encoding="UTF-8" standalone="no"?>
<!DOCTYPE svg PUBLIC "-//W3C//DTD SVG 1.1//EN" "http://www.w3.org/Graphics/SVG/1.1/DTD/svg11.dtd">
<!-- Generated by graphviz version 2.40.1 (20161225.0304)
 -->
<!-- Title: G Pages: 1 -->
<svg width="424pt" height="148pt" viewBox="0.00 0.00 424.00 148.00" xmlns="http://www.w3.org/2000/svg" xmlns:xlink="http://www.w3.org/1999/xlink">
<g id="graph0" class="graph" transform="scale(1 1) rotate(0) translate(4 144)">
<title>G</title>
<polygon fill="#ffffff" stroke="transparent" points="-4,4 -4,-144 420,-144 420,4 -4,4"/>
<g id="clust1" class="cluster">
<title>cluster_1</title>
<polygon fill="none" stroke="#000000" points="8,-8 8,-132 408,-132 408,-8 8,-8"/>
</g>
<!-- Approach -->
<g id="node1" class="node">
<title>Approach</title>
<ellipse fill="#d3d3d3" stroke="#000000" cx="222" cy="-106" rx="49.2202" ry="18"/>
<text text-anchor="middle" x="222" y="-101.8" font-family="Times,serif" font-size="14.00" fill="#000000">Approach</text>
</g>
<!-- Apriori -->
<g id="node2" class="node">
<title>Apriori</title>
<ellipse fill="#d3d3d3" stroke="#000000" cx="55" cy="-34" rx="39.4235" ry="18"/>
<text text-anchor="middle" x="55" y="-29.8" font-family="Times,serif" font-size="14.00" fill="#000000">Apriori</text>
</g>
<!-- Approach&#45;&gt;Apriori -->
<g id="edge1" class="edge">
<title>Approach-&gt;Apriori</title>
<path fill="none" stroke="#000000" d="M189.8007,-92.1177C162.2103,-80.2224 122.4195,-63.0671 93.2195,-50.4779"/>
<polygon fill="#000000" stroke="#000000" points="94.3244,-47.1429 83.7558,-46.3977 91.553,-53.5709 94.3244,-47.1429"/>
</g>
<!-- FP&#45;Growth -->
<g id="node3" class="node">
<title>FP-Growth</title>
<ellipse fill="#d3d3d3" stroke="#000000" cx="167" cy="-34" rx="54.472" ry="18"/>
<text text-anchor="middle" x="167" y="-29.8" font-family="Times,serif" font-size="14.00" fill="#000000">FP-Growth</text>
</g>
<!-- Approach&#45;&gt;FP&#45;Growth -->
<g id="edge2" class="edge">
<title>Approach-&gt;FP-Growth</title>
<path fill="none" stroke="#000000" d="M208.686,-88.5708C202.047,-79.8797 193.889,-69.2001 186.5554,-59.5998"/>
<polygon fill="#000000" stroke="#000000" points="189.2338,-57.3403 180.382,-51.5182 183.6711,-61.5896 189.2338,-57.3403"/>
</g>
<!-- Hybrid -->
<g id="node4" class="node">
<title>Hybrid</title>
<ellipse fill="#d3d3d3" stroke="#000000" cx="278" cy="-34" rx="38.2838" ry="18"/>
<text text-anchor="middle" x="278" y="-29.8" font-family="Times,serif" font-size="14.00" fill="#000000">Hybrid</text>
</g>
<!-- Approach&#45;&gt;Hybrid -->
<g id="edge3" class="edge">
<title>Approach-&gt;Hybrid</title>
<path fill="none" stroke="#000000" d="M235.556,-88.5708C242.3658,-79.8153 250.7453,-69.0418 258.2548,-59.3867"/>
<polygon fill="#000000" stroke="#000000" points="261.1921,-61.311 264.5688,-51.2687 255.6666,-57.0134 261.1921,-61.311"/>
</g>
<!-- Other -->
<g id="node5" class="node">
<title>Other</title>
<ellipse fill="#d3d3d3" stroke="#000000" cx="367" cy="-34" rx="33.043" ry="18"/>
<text text-anchor="middle" x="367" y="-29.8" font-family="Times,serif" font-size="14.00" fill="#000000">Other</text>
</g>
<!-- Approach&#45;&gt;Other -->
<g id="edge4" class="edge">
<title>Approach-&gt;Other</title>
<path fill="none" stroke="#000000" d="M251.3429,-91.4297C275.1175,-79.6244 308.6272,-62.9851 333.4609,-50.6539"/>
<polygon fill="#000000" stroke="#000000" points="335.1155,-53.7401 342.5155,-46.1578 332.0023,-47.4705 335.1155,-53.7401"/>
</g>
</g>
</svg>