<svg version="1.1" xmlns="http://www.w3.org/2000/svg" viewBox="0 0 1096 523" width="1096" height="523">
  <!-- svg-source:excalidraw -->
  
  <defs>
    <style>
      @font-face {
        font-family: "Virgil";
        src: url("https://excalidraw.com/FG_Virgil.woff2");
      }
      @font-face {
        font-family: "Cascadia";
        src: url("https://excalidraw.com/Cascadia.woff2");
      }
    </style>
  </defs>
  <g transform="translate(60.5 13) rotate(0 150.5 43)"><path d="M1.4141459342301277 1.42063122250534 C96.74671683767103 -0.35765646603016665, 190.27877520565355 -0.14721014590258413, 300.99869551938116 1.4146096466576188 M-0.10263399907443076 0.33362907815260434 C98.40368447915054 -1.6663198951273899, 197.1146797580881 -0.8896584743875008, 301.55237914371 0.47196922645625616 M301.9595212023705 1.047959627583623 C299.42917110325766 19.40222515258938, 302.2804485142417 41.98946377635002, 302.6061879079789 86.29650604911149 M301.7052073488012 -0.936066017486155 C299.39500881904735 29.143624433875086, 300.75539754504337 57.03485262785107, 301.6164211342111 85.26456950511783 M301.73551399168576 85.59113106346584 C209.52200731700177 85.61046826441975, 119.00706306642972 84.77901062556906, -0.46112980980263646 85.82888381693331 M301.7158641015969 86.72339218205742 C238.05520873949595 88.13426919757671, 175.26249060300998 88.13012293467096, -0.00429381117593795 86.51556552629918 M0.04699733667075634 86.60843843407929 C1.118596075605601 60.91345367413014, -1.5601977719552815 37.02236486449838, 0.43548151664435863 1.1282899398356676 M0.20329457614570856 85.23248512949795 C-0.3652881853468716 61.9928310226649, 0.24106268359348182 36.71577667016536, -0.8448708346113563 -0.7600575247779489" stroke="#000000" stroke-width="1" fill="none"></path></g><g transform="translate(67 41.5) rotate(356.9446940222939 144.78260869565213 10)"><text x="144.7826086956521" y="16" font-family="Helvetica, Segoe UI Emoji" font-size="17.39130434782607px" fill="#000000" text-anchor="middle" style="white-space: pre;" direction="ltr">But 1 : LPL configuration amélioration</text></g><g transform="translate(384.3092586357758 42.49928927556218) rotate(356.9446940222939 144.99999999999994 10.5)"><text x="145" y="17" font-family="Helvetica, Segoe UI Emoji" font-size="17.39130434782607px" fill="#000000" text-anchor="middle" style="white-space: pre;" direction="ltr">But 2 : LPL maintenance amélioration</text></g><g transform="translate(731.3092586357757 42.49928927556218) rotate(356.9446940222939 108 10.5)"><text x="108" y="17" font-family="Helvetica, Segoe UI Emoji" font-size="17.39130434782607px" fill="#000000" text-anchor="middle" style="white-space: pre;" direction="ltr">But 3 : LPL QA amélioration</text></g><g transform="translate(375 13) rotate(0 150.5 43)"><path d="M0.5401790025302499 -0.21277686230450568 C104.66539445169414 2.996166355142516, 206.56402466019335 0.7384922211370648, 300.49425177808024 -0.036010689027890556 M-0.10765017419658153 -0.3651842431876376 C91.8446666407844 -0.9463450479463283, 184.32139968491117 -0.9530719239176932, 300.3325665686719 0.25621556078303304 M299.08910721726716 -0.7055152971297503 C300.77995834378527 29.668594895862043, 301.3644233110361 60.35163262486458, 302.4811129588634 84.80363729409873 M300.3706392785534 0.1286150524392724 C301.1077039865218 18.458450713753702, 301.4998343912326 37.801257299445574, 301.28094772901386 85.62782722804695 M300.29958314404007 86.13411235816993 C185.47161148012378 86.94133191294145, 68.25459975659754 85.1660794876213, -0.2674129913291365 86.53781235125246 M301.6527074035547 86.04533618764418 C216.66801615816283 85.94446252393806, 133.31710482170197 85.53395833722756, -0.28637665314655747 85.67689276252244 M-1.699054418131709 86.94418236427009 C0.7780724810250104 60.16312962491065, 1.2696228669770062 32.590784694999456, 1.1446763295680285 -1.3288954216986895 M-0.5317896464839578 85.9819745728746 C-0.8392485736124217 56.96247717030346, -1.0598100481741128 26.61641211789101, 0.7064587911590934 -0.5276919594034553" stroke="#000000" stroke-width="1" fill="none"></path></g><g transform="translate(687 10) rotate(0 150.5 43)"><path d="M-0.319557492911759 0.26814445648039875 C66.44171053321784 0.49600721847440754, 133.6688207110656 -2.020344844577674, 301.9344895882351 -0.45972950113287864 M0.11918932068476229 -0.12860202583906202 C92.01115057451118 0.3510155715147907, 185.6141448534795 1.2018834090413504, 301.4990263942997 0.409146440500383 M301.88909918256104 1.7066414039582014 C302.77942128805444 29.00561177637428, 301.45615996746346 59.9275965988636, 302.17120731063187 85.34809151105583 M300.78142763581127 -0.7065917542204261 C301.7169865862094 25.01223775446415, 301.4606546953879 50.234455667994915, 300.658458574675 85.45385813806206 M302.13369741848334 84.99352760804614 C234.7396667451428 86.07865727023352, 168.64929496707518 88.87443098344487, 1.023582292226657 87.09275767297315 M301.085494826677 86.543370524701 C188.04912750355422 86.77971739163948, 74.2693322041085 85.79079305651285, 0.4229975833394005 86.26444777620586 M-0.9760964494198561 84.84829005412757 C1.2858404003269972 63.434408232755956, -1.9699351109378038 41.30113363489509, 1.4889378566294909 0.5192773621529341 M-0.012354896403849125 85.61679568979889 C0.988501855302602 67.69325011856854, 0.4826372648961842 51.74214812796563, -0.8429064312949777 0.06365496013313532" stroke="#000000" stroke-width="1" fill="none"></path></g><g transform="translate(10 231) rotate(0 128.5 43)"><path d="M-0.7804959652975081 0.32664472397975913 C87.35407312079377 2.62746877599136, 175.33240636723662 2.264371229928128, 255.8423309612711 -1.074680482959938 M-0.13371162123460767 -0.17307341574811932 C66.28754333766972 -1.8263068547249457, 134.14435123983574 -1.5017972754921578, 257.35391495547134 -0.778058043674755 M256.4956257957965 1.352788893505931 C257.23653362659735 31.61474242117256, 255.35671560434622 61.873489695787434, 258.9440013188869 84.88766398839653 M257.2378975292668 -0.448364763520658 C258.2075369301997 19.84610349237919, 257.65434911286457 37.95902362968773, 257.3688919385895 86.7827676543966 M258.2088441805155 84.49316886273708 C155.29773096797044 86.1483026376346, 52.057931228276935 85.313118263837, 0.25089367153720854 86.97389717259426 M257.34258259755813 85.5748451278615 C165.46483668015884 84.90344153416382, 72.36616614977129 85.0382968116388, 0.6222841889124869 86.15390059466142 M-0.8391590695828199 86.95255216769874 C0.3989951859600841 52.617394039221104, -0.15210655821487318 21.04599743112921, 1.0758340377360582 -0.4151644427329302 M-0.913497612811625 86.55673197004944 C0.13390567200258374 62.81143559105694, 0.282601170707494 38.423958769254384, -0.38583763036876917 -0.7682555308565497" stroke="#000000" stroke-width="1" fill="none"></path></g><g transform="translate(28.30925863577579 259.4992892755622) rotate(356.9446940222939 113 10.5)"><text x="113" y="17" font-family="Helvetica, Segoe UI Emoji" font-size="17.39130434782607px" fill="#000000" text-anchor="middle" style="white-space: pre;" direction="ltr">Q1: Les config des produits ?</text></g><g transform="translate(282 228) rotate(0 128.5 43)"><path d="M0.23329686334018704 1.6028870941701887 C85.83704633329911 -1.0672059749621303, 173.9449188886096 -0.7527774421191128, 257.78920606569005 1.5360833239492413 M0.5296292486262321 0.0005964368519783019 C96.27690957020832 0.733539269782744, 192.46129757255213 1.448934003312407, 256.2917264061915 -0.5417059281840323 M258.99519878812134 -1.7592985946685076 C257.8983625045232 25.105313133262097, 256.16282396225256 49.032880717515944, 256.3686002511531 87.70272341184318 M256.92326690163463 0.016608805395662785 C256.2417397800647 26.575853934884073, 256.98244005477056 53.414610516093674, 256.5023318370804 85.06010770890862 M257.75269142321565 86.20425964386502 C168.6869319016565 87.85519289552363, 78.79586717794889 89.03901425063228, 0.8854362400186537 86.39676754044095 M257.0931323978877 86.66160083749284 C170.13353631951966 86.90035844130165, 84.04237116566333 86.7019042480735, 0.08724324510145186 85.7344794921834 M-0.6769121270626783 86.77471455745399 C0.09486591206863515 61.14810580927878, 1.7793522416241467 42.023295690864316, -0.06296729855239391 0.5055315773934126 M-0.6884935358539224 85.72853079531342 C0.5221406330354512 67.18960622437298, 0.17297617690637712 47.25862328093499, -0.8380071679130197 0.5559976706281304" stroke="#000000" stroke-width="1" fill="none"></path></g><g transform="translate(329.8092586357757 257.4992892755622) rotate(356.9446940222939 81.5 10.5)"><text x="81.5" y="17" font-family="Helvetica, Segoe UI Emoji" font-size="17.39130434782607px" fill="#000000" text-anchor="middle" style="white-space: pre;" direction="ltr">Q2: Où sont les PV ?</text></g><g transform="translate(554 227) rotate(0 128.5 43)"><path d="M1.4822464613088606 0.8854362400186537 C86.8960458623963 1.1198608415645017, 173.84924861875717 1.320826030303515, 257.1862647957754 1.3232016749856947 M-0.33421825413923256 0.08724324510145186 C73.54835046001486 -1.728884537168868, 147.76958164809474 -1.7629121260207967, 256.727554240981 0.31180959417066567 M258.95214387588203 -0.06296729855239391 C256.6939194351621 25.37430466208607, 254.76485283674674 54.26006485819817, 255.62301292829216 85.45706159062684 M257.08566555473953 -0.8380071679130197 C258.0746872013249 25.58973582684994, 257.06989209705966 50.15143477711827, 257.73433566186577 85.1167339226231 M257.4055023953787 86.44314492450351 C184.89777116262124 84.32042390748508, 110.21069897263725 86.39769618020847, -0.6665421033578871 87.46306961142368 M256.4797756793141 85.98363057268324 C191.36451794447407 85.28037067338295, 124.53644733980978 84.51967500816383, -0.7689843558390616 86.57672889265089 M1.349896041676402 86.83182776160538 C1.875444294642657 56.80295346360654, -0.8914328201301396 27.633334002643828, 0.7143647950142622 -0.8969798665493727 M-0.22876438405364752 85.31441734638065 C0.16932855976745487 51.96388873569667, 0.5067480398528278 17.63470621723681, 0.31178385112434626 0.11827762331813574" stroke="#000000" stroke-width="1" fill="none"></path></g><g transform="translate(568.8092586357757 255.4992892755622) rotate(356.9446940222939 114.5 10.5)"><text x="114.5" y="17" font-family="Helvetica, Segoe UI Emoji" font-size="17.39130434782607px" fill="#000000" text-anchor="middle" style="white-space: pre;" direction="ltr">Q3: Quel est l'arborescence ?</text></g><g transform="translate(829 225) rotate(0 128.5 43)"><path d="M-1.6092257211263654 0.32281550920314783 C77.83866717756085 -2.1634211686127345, 159.19074146784962 -0.4587302605744046, 257.71883692126255 -1.5145449354318616 M-0.18598192149400708 -0.5480396372172355 C52.349093763550336 -0.14294712835534762, 103.9448897262314 -0.09508410273584078, 256.3781268519893 0.3682611740162849 M258.3472789544612 -1.4975892025977373 C258.35358448354526 20.071804826520385, 255.15293325511738 41.4367596924305, 255.9874517340213 85.28265294246376 M257.6264034351334 -0.8797826757654548 C256.8824804363214 30.666985622048376, 257.21476110195744 60.02979491259902, 257.7897798558697 85.46342268679291 M258.3778380719522 86.07773760694485 C158.70218639423555 83.5753591436054, 58.91250262062044 84.63236813640935, -1.1637400587057112 84.87888381660672 M257.1534249580409 86.2852695925252 C198.24272727996794 86.79514046118608, 138.64641452328166 87.54532702879777, 0.18481951492261883 86.78516002973528 M-1.6746816616505384 87.44151046685874 C-1.232557848226279 68.2956529410556, 1.521849974859506 46.69279277548194, -1.3138629775494337 -1.479789288714528 M-0.7991101304069161 86.15489512775093 C1.174319276381284 55.1424442756921, -0.5568365661613643 24.02641771715134, -0.2225276092067361 0.36977598164230585" stroke="#000000" stroke-width="1" fill="none"></path></g><g transform="translate(842.4231457768983 248.73678499722763) rotate(356.9446940222939 113.65386070931527 18.64633652262205)"><text x="113.65386070931532" y="15.646336522622043" font-family="Helvetica, Segoe UI Emoji" font-size="16.160235961934415px" fill="#000000" text-anchor="middle" style="white-space: pre;" direction="ltr">Q4: Quels sont les PV</text><text x="113.65386070931532" y="34.292673045244086" font-family="Helvetica, Segoe UI Emoji" font-size="16.160235961934415px" fill="#000000" text-anchor="middle" style="white-space: pre;" direction="ltr"> demandant beaucoup d'effort ?</text></g><g transform="translate(278 427) rotate(0 128.5 43)"><path d="M0.8381487763174056 0.6683176174905776 C62.61329653358942 0.6306687405191829, 125.60785581488487 1.7511728689066337, 255.76636471371364 -0.6144979285970686 M0.548908311842823 0.07909856491041183 C60.10217055910372 -2.1139687232757707, 121.61191364591541 -1.6446336053894184, 257.5211368008107 0.5945119341944693 M258.2756368201226 0.26494413800537586 C257.85772118212657 30.988378922082482, 257.1858281219192 66.60567547678947, 256.37622961215675 87.97960841841996 M256.19419658277184 -0.9367530206218362 C257.457213959638 32.83945611417294, 257.625635675136 65.73933678064496, 256.0802905866876 86.70690999832004 M256.3673076006216 85.73040560549107 C200.21574495448965 85.94273744686681, 140.09012591988116 87.04927294673864, 1.31465324231472 85.29554937385655 M257.157885215804 85.85537687510939 C172.05192512965647 88.07863596846518, 88.01597073930971 88.69176136623435, -0.7848805942515372 85.57741728404189 M-0.971588583663106 86.44747799821198 C0.9411573897115886 65.76933014374227, 2.5590172897093 46.54034191146493, -0.16970566101372242 0.1380372066050768 M-0.1985929599031806 85.7192325135693 C-1.6048561971075834 64.15750430338085, -1.612103198040277 42.003322136588395, 0.713229269720614 0.29007868375629187" stroke="#000000" stroke-width="1" fill="none"></path></g><g transform="translate(356.8092586357758 457.4992892755622) rotate(356.9446940222939 45.5 10.5)"><text x="45.5" y="17" font-family="Helvetica, Segoe UI Emoji" font-size="17.39130434782607px" fill="#000000" text-anchor="middle" style="white-space: pre;" direction="ltr">M1: #define</text></g><g transform="translate(559 426) rotate(0 128.5 43)"><path d="M-0.2231323052206039 -0.36907330377292624 C58.78950035762563 -2.0250620782915068, 117.38211149957341 -1.1746315675188017, 257.8255986477152 0.19579265979518887 M0.3467722601038932 0.5724458750325202 C89.55002225837569 -2.355596823312073, 180.5616576905342 -1.6671528834347538, 257.40268638143874 -0.2543087709605217 M256.93367362208664 -1.6405882555991411 C255.3509129234962 26.388261347077787, 254.68409424511714 52.17226651310921, 257.9448753017932 84.07569286040962 M256.808792992495 0.24654072616249323 C258.1111932823621 25.618976703286172, 257.7302380928956 49.34230474736542, 256.9164462229237 86.7756267497316 M257.2443274527018 85.56277656662502 C173.74056279869228 88.5140076269453, 89.25127593628436 88.38168109748364, 1.4629082075906752 87.16961500949002 M256.87721161346695 86.65436326219682 C158.03428604289402 85.51446994852903, 59.168673349957835 85.59647919289854, -0.2814319692997932 85.61037632968035 M1.8097156304866076 86.78319921903312 C1.4042533736117182 61.758460918255146, -2.2857777376286688 41.55662720426916, 0.8567487616091967 0.11947163753211498 M0.8193489154800773 86.79149913880974 C-0.023471495341509496 64.3348839033395, -1.1134930757991968 42.33688778560609, 0.27831859793514013 0.7170409271493554" stroke="#000000" stroke-width="1" fill="none"></path></g><g transform="translate(641.3092586357757 455.4992892755622) rotate(356.9446940222939 38 10.5)"><text x="38" y="17" font-family="Helvetica, Segoe UI Emoji" font-size="17.39130434782607px" fill="#000000" text-anchor="middle" style="white-space: pre;" direction="ltr">M2: #ifdef</text></g><g><g transform="translate(191.15451739626008 97.34923486901448) rotate(0 -18.56545670364983 55.579458118872765)"><path d="M-0.3582582782953977 0.9146484028548001 C-6.771944500204805 19.03036394759703, -31.822259224935788 91.14161979331018, -38.14873879706492 109.20952688163152 M1.654517396260053 0.349234869014472 C-4.894468493365382 18.634690093450878, -32.033029748986834 92.4076533255385, -38.78543080355978 110.80968136873102" stroke="#000000" stroke-width="1" fill="none"></path></g><g transform="translate(191.15451739626008 97.34923486901448) rotate(0 -18.56545670364983 55.579458118872765)"><path d="M-37.172788654269716 81.79823477920571 C-38.39817393890043 91.35071366257583, -38.239486744467605 101.14963934519133, -38.69239820320165 109.58633325595414 M-38.579672477955064 80.10918166377077 C-38.84372247839417 88.59938636148199, -39.696738856012466 98.53422780507994, -37.787854165434894 110.83158029496676" stroke="#000000" stroke-width="1" fill="none"></path></g><g transform="translate(191.15451739626008 97.34923486901448) rotate(0 -18.56545670364983 55.579458118872765)"><path d="M-17.909885221721076 88.87358309106608 C-25.479673556282208 96.04938425484568, -31.635010601153013 103.52914133969327, -38.69239820320165 109.58633325595414 M-19.316769045406424 87.18452997563114 C-25.122866368451053 93.65703578605059, -31.52672737216976 101.55302782710639, -37.787854165434894 110.83158029496676" stroke="#000000" stroke-width="1" fill="none"></path></g></g><g><g transform="translate(329.4484499003021 37.98636990191429) rotate(284.9018802620946 -31.488998705796178 120.22927434290648)"><path d="M-0.7445726227015257 1.1349295746535064 C-11.271008491201089 41.054176465139044, -53.51953707328879 199.15121144138402, -64.04338543263307 238.77211276607366 M1.0653880210407078 0.6851636560074987 C-8.985420658180251 40.784464213919144, -50.66077636045284 199.93958074493457, -61.65404439407443 239.77338502980547" stroke="#000000" stroke-width="1" fill="none"></path></g><g transform="translate(329.4484499003021 37.98636990191429) rotate(284.9018802620946 -31.488998705796178 120.22927434290648)"><path d="M-62.385379434594896 208.86409385084917 C-65.57065439933044 215.90198695658728, -64.83013533460166 224.4927871057042, -61.104635479553096 240.29109788924234 M-63.50489436465689 210.75890482824107 C-63.07887672447257 216.9871381997895, -63.34447068569929 223.7802643778212, -62.136244734442286 239.48075513314234" stroke="#000000" stroke-width="1" fill="none"></path></g><g transform="translate(329.4484499003021 37.98636990191429) rotate(284.9018802620946 -31.488998705796178 120.22927434290648)"><path d="M-42.561955355854586 214.16992650748836 C-50.19979135731081 219.8842735537225, -53.944701573227 227.27452746714573, -61.104635479553096 240.29109788924234 M-43.68147028591658 216.06473748488025 C-47.71294475931914 221.08285611769324, -52.45609305993494 226.67754382508326, -62.136244734442286 239.48075513314234" stroke="#000000" stroke-width="1" fill="none"></path></g></g><g><g transform="translate(426.7601609008377 -89.26326116257403) rotate(284.9018802620946 5.157437610471618 246.44327029041182)"><path d="M-0.8833252061158419 -0.5910244178026914 C0.8005626864215891 81.44098920177414, 8.919274311254998 410.0880433162547, 11.198200427059032 492.41013223795557 M0.8537903313338755 1.713083817511797 C2.2366342628231806 83.85205368298783, 8.012955376620672 411.3167495826132, 9.966827292729118 493.47756499862635" stroke="#000000" stroke-width="1" fill="none"></path></g><g transform="translate(426.7601609008377 -89.26326116257403) rotate(284.9018802620946 5.157437610471618 246.44327029041182)"><path d="M-1.8471056783243984 464.6007088348842 C1.9334223214917046 478.2796689747582, 7.722406673766384 488.0473761073927, 11.260802316281893 494.94592691464686 M0.024012393164637658 465.34113768214496 C1.7674009720517923 473.49625177332433, 5.785971625918524 481.15663645308035, 9.321341773297586 493.2460565191727" stroke="#000000" stroke-width="1" fill="none"></path></g><g transform="translate(426.7601609008377 -89.26326116257403) rotate(284.9018802620946 5.157437610471618 246.44327029041182)"><path d="M18.669901998650708 464.1855000093708 C14.4241222312002 477.8758796267928, 12.186044345370629 487.80603282060156, 11.260802316281893 494.94592691464686 M20.541020070139744 464.9259288566316 C16.849582226876354 473.1593031984783, 15.433148074284768 480.92967769730933, 9.321341773297586 493.2460565191727" stroke="#000000" stroke-width="1" fill="none"></path></g></g><g><g transform="translate(512.8490775993469 101.31479806154965) rotate(0 -47.885650653950904 55.58324303552507)"><path d="M0.6598506700247526 -1.1483072351664305 C-15.429210041488222 17.46452285548051, -79.77437573385743 93.42112863610188, -95.72536843694755 112.3147933062166 M-0.45286645755171784 0.863227521032095 C-16.730358606080227 19.042161434864003, -80.6378082363805 91.56079934524993, -96.43115197792658 110.35748670756817" stroke="#000000" stroke-width="1" fill="none"></path></g><g transform="translate(512.8490775993469 101.31479806154965) rotate(0 -47.885650653950904 55.58324303552507)"><path d="M-87.6830562162318 83.0851205227789 C-89.01287790813262 94.57873970088352, -93.09876995169154 102.2108158974181, -94.78116300068804 108.97540698893368 M-85.63276565867595 82.6606243014228 C-90.03038963066665 93.88123371862709, -93.80527771633822 104.19618176348669, -97.1376701204107 110.02023085620255" stroke="#000000" stroke-width="1" fill="none"></path></g><g transform="translate(512.8490775993469 101.31479806154965) rotate(0 -47.885650653950904 55.58324303552507)"><path d="M-72.15277891576136 96.49893762889498 C-79.25997379631158 103.14949869653415, -89.05194316400402 105.85311958358338, -94.78116300068804 108.97540698893368 M-70.1024883582055 96.07444140753888 C-80.49120392058754 102.31257693234349, -90.1908165386245 107.51021961660527, -97.1376701204107 110.02023085620255" stroke="#000000" stroke-width="1" fill="none"></path></g></g><g><g transform="translate(625.3997237608414 68.90158793519046) rotate(284.9018802620946 -35.42180960992323 89.42561884910269)"><path d="M0.7326073776930571 -0.3092713784426451 C-11.017225782057798 29.828036009012504, -59.66144630949277 150.39400307952783, -71.57622659753952 180.3684804956695 M-0.34191247835755356 -1.5172427974641325 C-11.618896528935585 28.279413471235674, -57.43966045665818 148.04890525765143, -69.30459418374988 178.39672653489615" stroke="#000000" stroke-width="1" fill="none"></path></g><g transform="translate(625.3997237608414 68.90158793519046) rotate(284.9018802620946 -35.42180960992323 89.42561884910269)"><path d="M-69.23825778922861 147.00452035856762 C-68.4801389236329 154.68073744017545, -69.98726125506246 162.71216922183638, -69.57500826980862 177.23837839365805 M-69.36226805130815 148.9051595172412 C-68.8408734031552 160.20727829769356, -68.52662914603364 170.58560424191398, -69.57145436987224 178.7886822225606" stroke="#000000" stroke-width="1" fill="none"></path></g><g transform="translate(625.3997237608414 68.90158793519046) rotate(284.9018802620946 -35.42180960992323 89.42561884910269)"><path d="M-50.09436869566223 154.3958336897064 C-53.33284154778437 160.6350419759588, -58.86460340310062 167.11259034236693, -69.57500826980862 177.23837839365805 M-50.21837895774177 156.29647284837998 C-56.72479485826928 164.74613821039895, -63.47165377013282 172.3982246883134, -69.57145436987224 178.7886822225606" stroke="#000000" stroke-width="1" fill="none"></path></g></g><g><g transform="translate(510.84907759934686 103.31479806154971) rotate(0 -174.89761496246797 55.86814671085219)"><path d="M0.20647174604237084 -0.6023467887192965 C-57.96505401965853 17.75408373044804, -290.70270989074686 92.67419709349053, -349.1156911160425 111.33413751561197 M-1.14426931662485 1.6958172018639743 C-59.455905274028595 20.673184033110743, -292.2054408318302 93.9289400623739, -350.0017016709783 112.33864021042365" stroke="#000000" stroke-width="1" fill="none"></path></g><g transform="translate(510.84907759934686 103.31479806154971) rotate(0 -174.89761496246797 55.86814671085219)"><path d="M-327.2254607860496 94.24611603813361 C-334.6937080919561 97.71577056126944, -341.6176690661239 106.18878810336786, -351.2199610036799 113.74239137323576 M-325.69346190118546 93.36428731558959 C-334.5224625349002 98.99764865799217, -342.26721869610475 105.3704927808481, -350.1524627546781 112.9503689391725" stroke="#000000" stroke-width="1" fill="none"></path></g><g transform="translate(510.84907759934686 103.31479806154971) rotate(0 -174.89761496246797 55.86814671085219)"><path d="M-321.032721009815 113.81062411908678 C-330.50905234961806 111.56266847295484, -339.246177076583 114.3074206308323, -351.2199610036799 113.74239137323576 M-319.50072212495087 112.92879539654277 C-330.1635976860089 112.21228560645172, -339.9124421329196 112.25368308736887, -350.1524627546781 112.9503689391725" stroke="#000000" stroke-width="1" fill="none"></path></g></g><g><g transform="translate(943.8649785882192 89.753850252496) rotate(284.9018802620946 -38.97944966742239 60.84211546742543)"><path d="M-0.23244543783366678 -0.3737296689301729 C-12.968595433925692 20.10578151470422, -64.23626998561177 101.2913872438669, -77.03836274598602 121.84772376014288 M-1.8136180220358074 -1.6155416904576123 C-14.610085595847524 19.144175386097277, -65.10301830180663 102.84341620167714, -77.72645389701117 123.29977262530845" stroke="#000000" stroke-width="1" fill="none"></path></g><g transform="translate(943.8649785882192 89.753850252496) rotate(284.9018802620946 -38.97944966742239 60.84211546742543)"><path d="M-72.44351280552955 94.712080927555 C-73.80985933988526 101.99020459118455, -73.4148095824964 106.85981380335346, -75.88961624580313 125.29003408875685 M-70.9218527635342 94.76396808492812 C-73.07301709508783 102.90559223634321, -75.51167399940255 112.04804432071752, -77.5736315375461 124.1878863633461" stroke="#000000" stroke-width="1" fill="none"></path></g><g transform="translate(943.8649785882192 89.753850252496) rotate(284.9018802620946 -38.97944966742239 60.84211546742543)"><path d="M-54.918937482794206 105.3895929103914 C-60.54349380566005 109.98349009659856, -64.4982440523235 112.20281872787629, -75.88961624580313 125.29003408875685 M-53.39727744079886 105.44148006776453 C-60.77118137923908 110.4059309100694, -68.38931599889159 116.39258980962367, -77.5736315375461 124.1878863633461" stroke="#000000" stroke-width="1" fill="none"></path></g></g><g><g transform="translate(853.8490775993466 100.31479806154965) rotate(0 -70.18412802863861 54.565929583199335)"><path d="M0.1602230440825223 -1.0734390925616026 C-23.177478581567623 17.034722483456136, -116.23048727313687 90.46550508141519, -139.5917541911454 109.05343922518196 M-1.2147985871136189 0.9774014385044576 C-24.746649604414916 19.190278621688492, -117.23428570734967 92.29128719516102, -140.52847910135995 110.20529825896028" stroke="#000000" stroke-width="1" fill="none"></path></g><g transform="translate(853.8490775993466 100.31479806154965) rotate(0 -70.18412802863861 54.565929583199335)"><path d="M-126.41541565070013 84.80263778420337 C-131.11099663384746 92.68373774106159, -134.1228216599032 100.02139041295618, -140.9183426836879 111.10031570591036 M-124.20836472837338 85.35770941844382 C-128.44271473838512 91.01034479550822, -134.3094754385376 98.62939931911893, -140.66632151719193 110.41404363330457" stroke="#000000" stroke-width="1" fill="none"></path></g><g transform="translate(853.8490775993466 100.31479806154965) rotate(0 -70.18412802863861 54.565929583199335)"><path d="M-113.7841909264838 100.97583055348011 C-122.78096121025526 103.43629332634295, -130.03946247406338 105.33644370361044, -140.9183426836879 111.10031570591036 M-111.57714000415706 101.53090218772056 C-119.10458773619514 102.91134865101273, -128.37368358768026 106.17400674675424, -140.66632151719193 110.41404363330457" stroke="#000000" stroke-width="1" fill="none"></path></g></g><g><g transform="translate(852.2421072776524 98.84039955169891) rotate(0 -211.50192152476882 58.59866758829918)"><path d="M0.5091052662581206 -0.9796924542635679 C-69.89212269978913 18.70163923905232, -352.98227126832757 97.16601035674105, -423.5129483157957 117.01073278186847 M-0.6827531982958317 1.1203650619089602 C-70.63452938640803 21.03846945696511, -350.91099380854223 99.0402716549952, -421.3965851516837 118.17702763086189" stroke="#000000" stroke-width="1" fill="none"></path></g><g transform="translate(852.2421072776524 98.84039955169891) rotate(0 -211.50192152476882 58.59866758829918)"><path d="M-398.57672237771715 98.90620762615114 C-403.36105414560586 104.019363423714, -406.6474761337275 107.23300317843955, -422.81069673797134 117.59664594126869 M-396.9266365084719 100.20120196270406 C-405.15427971908383 105.57110870007244, -411.55366976549925 112.08410196816344, -422.23580168107543 118.35593736382205" stroke="#000000" stroke-width="1" fill="none"></path></g><g transform="translate(852.2421072776524 98.84039955169891) rotate(0 -211.50192152476882 58.59866758829918)"><path d="M-393.1258803684147 118.69024977570854 C-398.86566513261874 119.7140559979882, -403.2851443284958 118.81522074099327, -422.81069673797134 117.59664594126869 M-391.47579449916947 119.98524411226146 C-401.5779505148398 119.01845279019578, -409.7203731119291 119.20504191893879, -422.23580168107543 118.35593736382205" stroke="#000000" stroke-width="1" fill="none"></path></g></g><g transform="translate(398.5 214) rotate(0 18 12)"><path d="M20.665262879803777 -0.09552899189293385 L36.72003233619034 13.680900244042277 L18.735680164769292 25.01723357848823 L-1.1179327946156263 13.266071109101176" stroke="none" stroke-width="0" fill="#000000" fill-rule="evenodd"></path><path d="M17.477452186867595 1.0945122856646776 C26.865255317734555 4.879619904095307, 31.620762106021864 9.40870017404668, 37.27188500575721 12.16111290641129 M18.137083531357348 0.15914215054363012 C22.487143411701545 3.412292063487694, 26.29428543088026 5.435315174395219, 36.26298847887665 13.716863854788244 M37.21349009685218 13.3804651517421 C32.85804197239689 16.800235878592357, 27.173613970363512 17.835092628197746, 18.524492053315043 22.755905570462346 M35.68581310007721 12.884153827093542 C32.216271287137644 15.057563876630738, 28.745994505314158 18.210098928203806, 19.938641608692706 23.169093205593526 M20.291124610230327 23.876060428097844 C15.957668050425127 21.60458126229234, 8.28590663424693 19.988125041713936, 0.23753115348517895 14.866309883072972 M18.06015855167061 24.91344769205898 C11.711370598291978 20.39564773417078, 6.696278288261965 16.893512591021135, 0.3653561780229211 13.108069344423711 M-1.1273517925292253 14.601622821763158 C6.760473564742133 9.642891568718479, 14.024902819851413 3.066327201882377, 19.93071666173637 -1.3760213237255812 M-0.6056943228468299 13.529341860674322 C3.7971531956735998 10.52807333917357, 7.347735580457374 7.495454139737412, 18.82673204038292 0.18232132401317358" stroke="#000000" stroke-width="1" fill="none"></path></g><g transform="translate(126.5 217) rotate(0 18 12)"><path d="M20.210161654278636 -0.28678631596267223 L36.53774216584861 14.352087678387761 L17.624323455616832 22.717526080086827 L1.701411871239543 13.852436603978276" stroke="none" stroke-width="0" fill="#000000" fill-rule="evenodd"></path><path d="M17.869290770962834 -0.4651948530226946 C23.6218458117079 4.113864587759599, 25.401788988718764 5.87931113471277, 36.3956577796489 11.796681432053447 M18.0610624095425 0.5435710260644555 C23.548447003746404 3.352965114908293, 26.454363925633952 6.296594896530733, 36.22358719911426 13.777688444592059 M36.401112319901586 11.09279396943748 C32.40403721866198 14.592131465757266, 25.88724601215683 18.06644008512609, 18.105581821873784 25.540123669430614 M36.72756235208362 13.162297428585589 C31.74456981978379 16.444348536161705, 27.930752132358027 19.249344687918203, 19.841853155754507 23.09368142578751 M18.022581161931157 23.01526757888496 C16.99371954704635 21.159758685557172, 9.684015052849428 20.094472108343616, -0.6443463545292616 13.757120518013835 M19.300334229134023 23.433574528433383 C14.327396422857417 20.75054269024171, 8.787840689672155 18.584320090068505, 0.9453400215134025 13.508178473450243 M1.117303254082799 14.345377830788493 C5.084256182881072 10.418870110781864, 10.843006695797667 6.350028420677408, 19.765807332471013 -1.714254291728139 M-0.9011944690719247 13.441783429123461 C4.319840569710359 9.158554779132828, 10.64394411762245 6.388148090662434, 18.657186224125326 0.036224753595888615" stroke="#000000" stroke-width="1" fill="none"></path></g><g transform="translate(671.5 212) rotate(0 18 12)"><path d="M19.644328178837895 -1.6344793159514666 L34.048939706757665 13.368584899231791 L18.961670817807317 25.81204637698829 L1.2906636018306017 14.622723964974284" stroke="none" stroke-width="0" fill="#000000" fill-rule="evenodd"></path><path d="M19.600668458268046 -1.132850943133235 C23.410221967147663 2.502062461310998, 25.98355437680148 6.857536091161893, 37.890680043026805 14.016356946900487 M19.5586516270414 0.6726889153942466 C23.834779704278333 5.115860474957154, 29.176473898263648 9.483468867475167, 36.38290366623551 12.14287285413593 M34.19761106185615 13.883566858246922 C30.190436186669395 14.562111043697222, 28.45316230722703 18.69880305011757, 18.31437244825065 24.072449507191777 M36.67604383919388 12.312161727808416 C29.214352386528624 17.862002929570153, 24.153170242337506 20.960541221490132, 18.02584004495293 24.32480992283672 M18.69535437040031 22.4508135933429 C10.864646771447733 19.294996667923403, 3.8524442654009903 13.392413160195572, -0.8008927423506975 13.106433989480138 M19.494723320938647 24.789425029419363 C12.096429633712397 19.2168103519734, 4.206132146613674 15.244117715852335, 0.6685561249032617 12.872705205343664 M-1.9586528856307268 14.866557719185948 C5.198289417503402 10.389425244508312, 9.081279612639918 5.0039630545768885, 19.47475507669151 0.9023069757968187 M0.10004773829132318 12.404375060461462 C5.5306581460777675 9.183232871601357, 10.901222433699296 6.7703726059477765, 18.23332363460213 -0.23483412060886621" stroke="#000000" stroke-width="1" fill="none"></path></g><g transform="translate(941.5 210) rotate(0 18 12)"><path d="M19.79387408681214 1.096044508740306 L35.16448140330613 13.681818990036845 L19.084468068554997 25.358137218281627 L-1.358336327597499 12.7471305411309" stroke="none" stroke-width="0" fill="#000000" fill-rule="evenodd"></path><path d="M20.578850058838725 0.6711902040988207 C22.26585701529868 2.6724572836700826, 27.0565866498556 7.819535778118298, 35.74541041068733 11.705934287980199 M19.933278859592974 0.3038314124569297 C22.807086984580383 2.876603028429672, 25.17469736156054 5.804082653457299, 36.45115348789841 12.630014344118536 M34.80875012092292 14.177087070420384 C29.341893261549995 18.705814693933352, 25.536121617043392 19.012946265535426, 18.530331758782268 24.644328178837895 M35.98083540890366 13.906023188494146 C32.827330903345725 16.24372807514854, 27.7255631578248 18.055519161811098, 18.794884086586535 24.849743618629873 M18.474362997338176 22.97624451108277 C11.72186047484167 21.872197849573567, 8.0636472480651 16.810426989188414, 0.7096451204270124 12.279608132317662 M18.206363798119128 24.38689900841564 C11.450876520490272 19.927261667614804, 2.9137558536697163 16.039828123347835, -0.5216397931799293 12.925543411634862 M1.9840749185532331 14.280393483117223 C7.442391069410369 8.51700937169604, 10.646641847947613 3.517242198148743, 18.424158601090312 -0.4401667695492506 M0.027252943255007267 12.526823862455785 C5.559414632255211 8.951254313299433, 13.017496145619079 4.248071994213387, 19.88088482711464 -0.8085103491321206" stroke="#000000" stroke-width="1" fill="none"></path></g><g transform="translate(387.5 413) rotate(0 18 12)"><path d="M17.15768393687904 1.5613170880824327 L34.337158827111125 13.993743481114507 L19.991576878353953 24.407495023682714 L-1.807711811736226 12.943135680630803" stroke="none" stroke-width="0" fill="#000000" fill-rule="evenodd"></path><path d="M18.731115641072392 0.6831102054566145 C23.069100477201864 4.968114161109551, 30.36364169598557 9.040888485210017, 34.06172383017838 14.471006540581584 M18.63750947918743 0.22006985638290644 C24.19557045438327 3.8780410959292206, 28.353657122431322 6.128038912629709, 35.778315289877355 12.05735766980797 M37.99421084113419 11.551512388512492 C31.419761903258042 15.097273658001797, 25.384050412243234 19.37703635866754, 19.79674476571381 23.666585771366954 M36.54802225437015 12.582240701653063 C29.654469150519 17.378686641482638, 23.395124058546497 20.926257753232495, 18.87356527056545 24.869175464846194 M20.85659688897431 23.788427678868175 C12.660063711060209 21.119196869460865, 7.398266408378255 18.663176555493845, -1.9692242126911879 12.578029183670878 M18.044555499218404 23.73850277159363 C13.44752388083376 20.318773070657627, 9.836025597704575 18.847744637383148, 0.19042532052844763 13.020647228695452 M-0.8176515083760023 12.144039181992412 C8.929874933334068 8.261438839109616, 13.929502854039894 2.0582576912548394, 19.739219726994634 -1.1245582420378923 M-0.262447671033442 12.388471544720232 C7.138109842156992 8.293359910687432, 11.365892123179512 4.163847569646313, 18.205549492500722 -0.9204474976286292" stroke="#000000" stroke-width="1" fill="none"></path></g><g transform="translate(662.5 409) rotate(0 18 12)"><path d="M17.567876460030675 1.9646021407097578 L37.309934200719 12.833802906796336 L20.500113965943456 24.001250056549907 L0.3414797205477953 12.56759056262672" stroke="none" stroke-width="0" fill="#000000" fill-rule="evenodd"></path><path d="M19.297553030773997 -0.8176515083760023 C23.36524839733727 5.915433833831921, 29.407105146786197 7.8833880713116375, 34.60870376043022 13.739219726994634 M18.980521173216403 -0.262447671033442 C22.561788447266444 4.211743630720303, 26.79901541319676 5.481919394964352, 35.54397475812584 12.205549492500722 M34.337158827111125 13.993743481114507 C33.355010240850966 15.82771472877823, 27.02048229672946 17.650863138334827, 18.102439729496837 25.868182541802526 M35.108164430595934 13.205229296348989 C32.2581133350078 16.054049625815825, 28.22926182600669 17.571985024502503, 18.85466340277344 24.45711527671665 M20.294105855748057 23.783762814477086 C12.477226678924636 22.466655781390145, 11.755783989643678 19.588717497875916, 0.17336800508201122 13.646973313763738 M19.177359850145876 23.337326391600072 C15.2903300898429 21.96794128543697, 11.917100687818602 19.543802268104628, -0.5037830462679267 12.888573600910604 M0.7310772221535444 14.828590573742986 C4.33022627609782 9.751926325438543, 7.961789139667527 5.32275918171741, 17.30409356765449 0.9006042499095201 M0.9814729103818536 13.678857042454183 C5.74245294236578 8.834879001984373, 13.161335058761761 4.227280553905292, 18.130164952017367 0.1923988303169608" stroke="#000000" stroke-width="1" fill="none"></path></g><g><g transform="translate(972.8708965005633 310.4549786885921) rotate(0 -141.18736024330371 46.802787664672394)"><path d="M0.9309165727347135 1.0738824773579834 C-46.11627496552655 16.59113906857558, -234.88860507817014 76.64427165226083, -282.24265048300856 92.0185346979462 M-0.03949095591902729 0.5920668326318266 C-47.2674042754341 16.318220520960175, -236.49336628743453 77.31593925052326, -283.3056370593422 93.01350849671293" stroke="#000000" stroke-width="1" fill="none"></path></g><g transform="translate(972.8708965005633 310.4549786885921) rotate(0 -141.18736024330371 46.802787664672394)"><path d="M-257.9272510919591 74.11273716854046 C-268.7629028627614 78.33454022164071, -273.7508763248875 85.62707664528146, -284.1293056901359 93.70503145447005 M-259.7184302991127 74.10122865622978 C-266.816388633659 79.62069539631503, -275.9777587442306 85.82742184682252, -283.40263047495864 93.04434327492494" stroke="#000000" stroke-width="1" fill="none"></path></g><g transform="translate(972.8708965005633 310.4549786885921) rotate(0 -141.18736024330371 46.802787664672394)"><path d="M-251.531297596014 93.61175717631386 C-264.1310166633512 91.96766456386021, -271.05936184923047 93.34468782938193, -284.1293056901359 93.70503145447005 M-253.32247680316763 93.60024866400317 C-262.31332752965784 92.79983879072302, -273.5548836227076 92.66480742233027, -283.40263047495864 93.04434327492494" stroke="#000000" stroke-width="1" fill="none"></path></g></g><g><g transform="translate(667.306658575013 314.1060744660347) rotate(0 -119.75543495910256 47.16859585723836)"><path d="M0.993096237257123 0.1484686385840177 C-38.8582503118832 16.1264176952218, -199.37933841035715 79.59170669435211, -239.72898856362343 95.15638098597525 M0.05533303247764709 -0.8191892714984714 C-39.870860599158355 14.875240635716665, -200.70145422167158 77.52937873531754, -240.50396615546214 93.3930453406833" stroke="#000000" stroke-width="1" fill="none"></path></g><g transform="translate(667.306658575013 314.1060744660347) rotate(0 -119.75543495910256 47.16859585723836)"><path d="M-217.77944966416356 74.07336098717137 C-222.5843344020608 76.89900572813062, -230.86421433221858 84.86410276235729, -239.0941936979072 92.5193439750187 M-217.85515503130404 73.69958374945058 C-225.85845140365234 80.46013895511047, -235.16807339190026 88.40666234383048, -240.64192895963805 93.79052496517076" stroke="#000000" stroke-width="1" fill="none"></path></g><g transform="translate(667.306658575013 314.1060744660347) rotate(0 -119.75543495910256 47.16859585723836)"><path d="M-210.266469542243 93.16983008681034 C-216.8233119548772 91.3168079223723, -226.96834600545515 94.54106211545448, -239.0941936979072 92.5193439750187 M-210.34217490938346 92.79605284908955 C-221.30788676171755 92.35931125066872, -233.45793288189552 93.08605356915689, -240.64192895963805 93.79052496517076" stroke="#000000" stroke-width="1" fill="none"></path></g></g><g><g transform="translate(715.3509515720798 339.92206049718027) rotate(284.9018802620946 -41.93324622948148 16.555583753285703)"><path d="M-1.0774420369416475 1.1954347897320987 C-15.128490346274189 6.160469888572194, -70.77923086534645 25.736773311219103, -84.42425462328738 30.712928634058223 M0.5577621643245219 0.777434109002352 C-13.098121190345694 5.8799957128358855, -68.1320129092356 27.63473273733902, -82.11511412889605 32.33373339756904" stroke="#000000" stroke-width="1" fill="none"></path></g><g transform="translate(715.3509515720798 339.92206049718027) rotate(284.9018802620946 -41.93324622948148 16.555583753285703)"><path d="M-57.23635029982822 11.658723119057363 C-65.45583056766743 19.542548313350654, -71.53103003303747 25.531034835354646, -81.7955885014767 32.155294557135086 M-59.14849412351893 12.564209744676596 C-65.64869848693782 17.852014724223594, -70.26334669818618 21.957768921046622, -81.4581035726974 32.8902916629198" stroke="#000000" stroke-width="1" fill="none"></path></g><g transform="translate(715.3509515720798 339.92206049718027) rotate(284.9018802620946 -41.93324622948148 16.555583753285703)"><path d="M-50.123084445058524 30.907656888625148 C-60.55462939388767 33.14215885434493, -68.69388238641821 33.54518991154099, -81.7955885014767 32.155294557135086 M-52.035228268749236 31.81314351424438 C-59.97533410582372 32.68470416871156, -66.21846971915096 32.383671555201545, -81.4581035726974 32.8902916629198" stroke="#000000" stroke-width="1" fill="none"></path></g></g><g><g transform="translate(548.7161438346324 226.24814782433197) rotate(284.9018802620946 -12.96854946668708 135.02312893704678)"><path d="M-0.16259844191372386 -0.7893896173685788 C-4.215776407195502 44.36152812709777, -20.854532696671157 225.77459829252805, -24.917689528530083 270.83564749146217 M-1.7071013532578947 1.4105768881738188 C-5.850715455262238 46.20873889771968, -21.889263312063484 224.14306268949656, -25.774500491460405 268.99365588190375" stroke="#000000" stroke-width="1" fill="none"></path></g><g transform="translate(548.7161438346324 226.24814782433197) rotate(284.9018802620946 -12.96854946668708 135.02312893704678)"><path d="M-34.82041275664312 240.2963432684188 C-30.697444668930572 248.1838002906227, -30.861894273866714 255.5488829588432, -27.001962457215033 270.1771069402468 M-33.978436141042835 239.34955490991672 C-31.494393249581993 246.1924577708583, -29.737569457279477 253.36239599245246, -25.41727790365889 268.4851916488853" stroke="#000000" stroke-width="1" fill="none"></path></g><g transform="translate(548.7161438346324 226.24814782433197) rotate(284.9018802620946 -12.96854946668708 135.02312893704678)"><path d="M-14.379425095667747 242.1090831365996 C-15.367996376972787 249.5154497161695, -20.645040652174362 256.42713921462985, -27.001962457215033 270.1771069402468 M-13.537448480067459 241.1622947780975 C-15.50651546843466 247.74503015123014, -18.211997381973852 254.5192438808795, -25.41727790365889 268.4851916488853" stroke="#000000" stroke-width="1" fill="none"></path></g></g><g><g transform="translate(268.60005493873246 225.5984056363303) rotate(284.9018802620946 -10.993704194476493 136.0718141989395)"><path d="M0.5884836684912442 0.2951617408543825 C-3.230578259097305 45.663089021518324, -18.954102239841056 226.2619501698737, -22.575892057444253 271.7518985534429 M-0.561701134890318 -0.5954822905361652 C-4.050066939832535 44.92498125120947, -16.890000167497824 227.453084249941, -20.413931310574807 272.73911068841517" stroke="#000000" stroke-width="1" fill="none"></path></g><g transform="translate(268.60005493873246 225.5984056363303) rotate(284.9018802620946 -10.993704194476493 136.0718141989395)"><path d="M-28.085349580104264 242.12512950145646 C-27.754344808834503 253.9491496089433, -22.60348862475796 261.5035736161715, -19.340174409027494 272.05850527874827 M-29.45201526844761 243.80568747979595 C-26.065630546752082 251.26932472161502, -24.342976683276888 257.4862336507651, -20.052207797232366 273.4948232413426" stroke="#000000" stroke-width="1" fill="none"></path></g><g transform="translate(268.60005493873246 225.5984056363303) rotate(284.9018802620946 -10.993704194476493 136.0718141989395)"><path d="M-7.619514540239283 243.63164817272292 C-13.999811862110974 255.06158395129026, -15.565978338067595 262.12155854890733, -19.340174409027494 272.05850527874827 M-8.98618022858263 245.3122061510624 C-10.211696315749856 252.56819702666516, -13.090038426563215 258.44642022282727, -20.052207797232366 273.4948232413426" stroke="#000000" stroke-width="1" fill="none"></path></g></g></svg>